<svg width="17" height="17" viewBox="0 0 17 17" xmlns="http://www.w3.org/2000/svg" xmlns:xlink="http://www.w3.org/1999/xlink">
    <defs>
        <path id="gzd3d0r68a" d="M0 .758h16.314v16.07H0z"/>
    </defs>
    <g fill="none" fill-rule="evenodd">
        <g transform="translate(0 .043)">
            <mask id="f5bkti8peb" fill="#fff">
                <use xlink:href="#gzd3d0r68a"/>
            </mask>
            <path d="M8.157.758c-2.215 0-2.493.01-3.364.048-.867.04-1.46.175-1.979.375-.536.205-.992.48-1.444.926A3.937 3.937 0 0 0 .428 3.53C.227 4.041.088 4.626.05 5.48.01 6.338 0 6.612 0 8.794c0 2.183.01 2.457.05 3.313.04.855.178 1.44.38 1.95.208.529.487.977.94 1.424a4 4 0 0 0 1.445.927c.52.198 1.112.334 1.98.374.87.038 1.148.048 3.363.048 2.216 0 2.493-.01 3.363-.048.868-.04 1.46-.176 1.98-.374.536-.206.99-.48 1.444-.927.454-.447.733-.895.942-1.423.2-.512.34-1.096.378-1.95.04-.857.05-1.131.05-3.314 0-2.182-.01-2.456-.05-3.312-.039-.855-.177-1.44-.378-1.95a3.937 3.937 0 0 0-.942-1.424A4.004 4.004 0 0 0 13.5 1.18c-.52-.2-1.112-.335-1.98-.375-.87-.038-1.147-.048-3.363-.048m0 1.448c2.178 0 2.436.008 3.296.047.795.036 1.227.166 1.514.277.38.145.653.32.938.601.285.28.462.548.61.924.112.283.245.708.282 1.491.039.848.047 1.102.047 3.247 0 2.146-.008 2.4-.047 3.248-.037.782-.17 1.208-.281 1.492a2.488 2.488 0 0 1-.61.923 2.526 2.526 0 0 1-.939.6c-.287.111-.719.242-1.514.278-.86.039-1.118.047-3.296.047s-2.436-.008-3.296-.047c-.795-.036-1.227-.167-1.515-.277a2.526 2.526 0 0 1-.938-.601 2.488 2.488 0 0 1-.61-.923c-.111-.284-.244-.71-.28-1.492-.04-.848-.048-1.102-.048-3.248 0-2.145.008-2.399.047-3.247.037-.783.17-1.208.281-1.491.148-.376.325-.643.61-.924.286-.281.558-.456.938-.601.288-.11.72-.241 1.515-.277.86-.039 1.118-.047 3.296-.047" fill="#FFF" mask="url(#f5bkti8peb)"/>
        </g>
        <path d="M8.157 11.515c-1.502 0-2.719-1.2-2.719-2.678 0-1.48 1.217-2.68 2.719-2.68 1.501 0 2.719 1.2 2.719 2.68 0 1.478-1.218 2.678-2.72 2.678m0-6.804c-2.312 0-4.187 1.847-4.187 4.126 0 2.279 1.875 4.126 4.188 4.126 2.313 0 4.188-1.847 4.188-4.126 0-2.28-1.875-4.126-4.188-4.126M13.49 4.547a.972.972 0 0 1-.979.964.972.972 0 0 1-.979-.964c0-.532.438-.964.98-.964.54 0 .978.432.978.964" fill="#FFF"/>
    </g>
</svg>
