<svg width="16" height="15" viewBox="0 0 16 15" xmlns="http://www.w3.org/2000/svg" xmlns:xlink="http://www.w3.org/1999/xlink">
    <defs>
        <path id="2ha63czq7a" d="M0 .602h3.475v13.635H0z"/>
        <path id="pswyucrx3c" d="M.803.157h9.34v9.335H.804z"/>
    </defs>
    <g fill="none" fill-rule="evenodd">
        <g transform="translate(0 .19)">
            <mask id="p5ymbslsbb" fill="#fff">
                <use xlink:href="#2ha63czq7a"/>
            </mask>
            <path d="M1.738.602c.96 0 1.737.735 1.737 1.64 0 .907-.777 1.642-1.737 1.642C.776 3.884 0 3.15 0 2.242 0 1.337.776.602 1.738.602zm-1.5 13.636h2.999V5.13h-3v9.108z" fill="#FFF" mask="url(#p5ymbslsbb)"/>
        </g>
        <g transform="translate(5.363 4.935)">
            <mask id="qgqucq7ild" fill="#fff">
                <use xlink:href="#pswyucrx3c"/>
            </mask>
            <path d="M.803.384h2.873v1.244h.04C4.116.912 5.094.157 6.552.157c3.032 0 3.592 1.886 3.592 4.34v4.995H7.15V5.063c0-1.056-.022-2.415-1.558-2.415-1.56 0-1.796 1.15-1.796 2.339v4.505H.803V.384z" fill="#FFF" mask="url(#qgqucq7ild)"/>
        </g>
    </g>
</svg>
