<svg width="17" height="14" viewBox="0 0 17 14" xmlns="http://www.w3.org/2000/svg" xmlns:xlink="http://www.w3.org/1999/xlink">
    <defs>
        <path id="f3km9o72ta" d="M0 0h16.596v13.365H0z"/>
    </defs>
    <g fill="none" fill-rule="evenodd">
        <mask id="lgfgvwzqfb" fill="#fff">
            <use xlink:href="#f3km9o72ta"/>
        </mask>
        <path d="M5.22 13.365c6.262 0 9.687-5.141 9.687-9.6 0-.146-.003-.291-.01-.436a6.902 6.902 0 0 0 1.699-1.746 6.883 6.883 0 0 1-1.956.53A3.395 3.395 0 0 0 16.137.248a6.86 6.86 0 0 1-2.161.819A3.417 3.417 0 0 0 11.49 0C9.61 0 8.085 1.51 8.085 3.374c0 .265.03.522.088.769A9.693 9.693 0 0 1 1.155.618a3.335 3.335 0 0 0-.461 1.696c0 1.17.6 2.204 1.515 2.808A3.401 3.401 0 0 1 .667 4.7l-.001.043c0 1.635 1.174 2.998 2.732 3.308a3.438 3.438 0 0 1-1.538.058 3.407 3.407 0 0 0 3.181 2.343 6.875 6.875 0 0 1-4.229 1.444c-.274 0-.546-.016-.812-.046a9.697 9.697 0 0 0 5.22 1.515" fill="#FFF" mask="url(#lgfgvwzqfb)"/>
    </g>
</svg>
