<svg width="47" height="48" viewBox="0 0 47 48" xmlns="http://www.w3.org/2000/svg">
    <path d="M16.118 12.055c0-.184-.028-.369-.083-.55a29.981 29.981 0 0 1-1.12-5.41A1.807 1.807 0 0 0 13.107 4.5H5.82c-.517 0-.992.21-1.34.592-.352.385-.519.885-.471 1.408 1.807 19.628 17.364 35.185 36.991 36.992a1.818 1.818 0 0 0 1.41-.47c.38-.35.591-.824.591-1.342v-7.289c0-.926-.686-1.702-1.596-1.805a30.191 30.191 0 0 1-5.41-1.12 1.82 1.82 0 0 0-1.826.44l-4.809 4.81-1.162-.58a37.648 37.648 0 0 1-16.833-16.834l-.578-1.162 4.808-4.81c.341-.34.524-.8.524-1.275M0 6.036A5.528 5.528 0 0 1 5.52.5h7.413a5.506 5.506 0 0 1 5.485 4.883 26.877 26.877 0 0 0 1.003 4.837 5.52 5.52 0 0 1-1.363 5.528l-3.005 3.003a34.64 34.64 0 0 0 13.695 13.695l3.004-3.004a5.518 5.518 0 0 1 5.528-1.362c1.572.48 3.198.818 4.837 1.003A5.505 5.505 0 0 1 47 34.566v7.412a5.528 5.528 0 0 1-1.799 4.077 5.551 5.551 0 0 1-4.243 1.422 44.962 44.962 0 0 1-15.264-4.19 45.312 45.312 0 0 1-12.586-8.896 45.326 45.326 0 0 1-8.895-12.585A45 45 0 0 1 .023 6.542 5.412 5.412 0 0 1 0 6.036" fill="#FFF" fill-rule="evenodd"/>
</svg>
