<svg width="18" height="13" viewBox="0 0 18 13" xmlns="http://www.w3.org/2000/svg" xmlns:xlink="http://www.w3.org/1999/xlink">
    <defs>
        <path id="7gsrqcnl9a" d="M0 0h17.453v12.407H0z"/>
    </defs>
    <g fill="none" fill-rule="evenodd">
        <mask id="k4jxki999b" fill="#fff">
            <use xlink:href="#7gsrqcnl9a"/>
        </mask>
        <path d="M6.924 8.492V3.535l4.716 2.487-4.716 2.47zm10.355-5.815s-.171-1.216-.694-1.751C15.921.223 15.177.22 14.836.178 12.394 0 8.73 0 8.73 0h-.007S5.06 0 2.617.178C2.276.22 1.532.223.868.926c-.523.535-.694 1.75-.694 1.75S0 4.105 0 5.533V6.87c0 1.427.174 2.855.174 2.855s.171 1.216.694 1.75c.664.703 1.536.681 1.925.755 1.396.135 5.934.177 5.934.177s3.667-.005 6.11-.184c.34-.04 1.084-.045 1.748-.747.523-.535.694-1.751.694-1.751s.174-1.428.174-2.855V5.532c0-1.428-.174-2.855-.174-2.855z" fill="#FFF" mask="url(#k4jxki999b)"/>
    </g>
</svg>
