<svg width="130" height="26" viewBox="0 0 130 26" xmlns="http://www.w3.org/2000/svg" xmlns:xlink="http://www.w3.org/1999/xlink">
    <defs>
        <path id="5pk051tpga" d="M.83.34h11.457v12.058H.829z"/>
        <path id="sdc2d1jl8c" d="M.206.12h7.198v7.199H.206z"/>
        <path id="8mjii442me" d="M.155.403h5.598V6H.155z"/>
    </defs>
    <g fill="none" fill-rule="evenodd">
        <path d="M48.165 17.182v-1.359H45.24c-1.928 0-2.45.702-2.45 1.557 0 .987.863 1.624 2.314 1.624 1.383 0 2.585-.615 3.062-1.822M51 14.165v5.388c0 .714-.6 1.293-1.339 1.293-.738 0-1.338-.579-1.338-1.293v-.132C47.643 20.43 46.328 21 44.513 21 41.746 21 40 19.531 40 17.49c0-1.952 1.361-3.488 5.035-3.488h3.13v-.176c0-1.602-.998-2.545-3.017-2.545-1.36 0-2.767.439-3.673 1.163l-1.111-1.996c1.36-1.015 3.373-1.497 5.432-1.444 2.894.075 5.204 2.36 5.204 5.16M66 9l-5.072 12h-2.856L53 9h2.88l3.675 8.899L63.342 9zM68.425 9.549h3.125v10.994c0 .805-.699 1.457-1.562 1.457-.863 0-1.563-.652-1.563-1.457V9.549zM68 5.749C68 4.769 68.85 4 70 4s2 .721 2 1.68c0 1.025-.825 1.817-2 1.817-1.15 0-2-.77-2-1.748zM84.18 15.78c0-2.313-1.582-3.788-3.645-3.788-2.064 0-3.646 1.475-3.646 3.789 0 2.315 1.582 3.79 3.646 3.79 2.063 0 3.645-1.475 3.645-3.79zM87 5v15.48a1.37 1.37 0 0 1-1.375 1.362 1.37 1.37 0 0 1-1.376-1.361v-.206C83.285 21.433 81.864 22 80.19 22 76.637 22 74 19.548 74 15.78c0-3.766 2.637-6.194 6.19-6.194 1.583 0 2.98.522 3.943 1.633V5H87zM98.165 17.182v-1.359H95.24c-1.928 0-2.45.702-2.45 1.557 0 .987.863 1.624 2.314 1.624 1.383 0 2.585-.615 3.062-1.822M101 14.165v5.388c0 .714-.6 1.293-1.338 1.293-.74 0-1.34-.579-1.34-1.293v-.132C97.645 20.43 96.329 21 94.515 21 91.747 21 90 19.531 90 17.49c0-1.952 1.361-3.488 5.035-3.488h3.13v-.176c0-1.602-.998-2.545-3.017-2.545-1.36 0-2.767.439-3.673 1.163l-1.111-1.996c1.36-1.015 3.374-1.497 5.432-1.444 2.894.075 5.204 2.36 5.204 5.16M105 4h3v15.568c0 .792-.672 1.432-1.5 1.432-.83 0-1.5-.64-1.5-1.432V4zM112.425 9.549h3.125v10.994c0 .805-.699 1.457-1.563 1.457-.863 0-1.562-.652-1.562-1.457V9.549zm-.425-3.8c0-.98.85-1.749 2-1.749s2 .721 2 1.68c0 1.025-.826 1.817-2 1.817-1.15 0-2-.77-2-1.748z" fill="#000"/>
        <g transform="translate(117 9)">
            <mask id="uym0qcocjb" fill="#fff">
                <use xlink:href="#5pk051tpga"/>
            </mask>
            <path d="M9.334 8.562V7.196H6.287c-2.009 0-2.551.705-2.551 1.564 0 .993.897 1.632 2.41 1.632 1.44 0 2.692-.618 3.188-1.83m2.953-3.033v5.415c0 .718-.624 1.3-1.394 1.3-.769 0-1.394-.582-1.394-1.3v-.132c-.708 1.014-2.079 1.586-3.968 1.586-2.882 0-4.702-1.475-4.702-3.528 0-1.961 1.418-3.505 5.245-3.505h3.26V5.19c0-1.61-1.039-2.558-3.141-2.558-1.418 0-2.883.441-3.828 1.17L1.208 1.793C2.625.774 4.723.289 6.868.344c3.013.075 5.419 2.37 5.419 5.185" fill="#000" mask="url(#uym0qcocjb)"/>
        </g>
        <path d="M1.933.117 14.913 0a1.952 1.952 0 0 1 1.97 1.933L17 14.913a1.948 1.948 0 0 1-1.933 1.967L2.087 17a1.952 1.952 0 0 1-1.97-1.934L0 2.086A1.952 1.952 0 0 1 1.933.117" fill="#1CB5B1"/>
        <g transform="translate(19)">
            <mask id="2xqjyl8oad" fill="#fff">
                <use xlink:href="#sdc2d1jl8c"/>
            </mask>
            <path d="m5.938 7.28-4.2.039A1.481 1.481 0 0 1 .244 5.852l-.038-4.2A1.482 1.482 0 0 1 1.673.158l4.2-.039a1.481 1.481 0 0 1 1.494 1.468l.037 4.2A1.478 1.478 0 0 1 5.938 7.28" fill="#3987F6" mask="url(#2xqjyl8oad)"/>
        </g>
        <path d="M29.17 21.924 20.937 22a1.846 1.846 0 0 1-1.862-1.83L19 11.939a1.845 1.845 0 0 1 1.828-1.862L29.063 10a1.848 1.848 0 0 1 1.862 1.83L31 20.062a1.847 1.847 0 0 1-1.83 1.862" fill="#EDCC24"/>
        <g transform="translate(11 19)">
            <mask id="ivyduhz2of" fill="#fff">
                <use xlink:href="#8mjii442me"/>
            </mask>
            <path d="m1.62 6 2.719-.024a1.428 1.428 0 0 0 1.414-1.44l-.025-2.72A1.426 1.426 0 0 0 4.288.403L1.57.427a1.428 1.428 0 0 0-1.415 1.44l.025 2.72A1.426 1.426 0 0 0 1.62 6" fill="#F14040" mask="url(#ivyduhz2of)"/>
        </g>
    </g>
</svg>
